<svg xmlns="http://www.w3.org/2000/svg" viewBox="0 0 512 512" width="512" height="512">
  <defs>
    <linearGradient id="bgGrad" x1="0%" y1="0%" x2="100%" y2="100%">
      <stop offset="0%" stop-color="#1e3a8a"/>
      <stop offset="50%" stop-color="#312e81"/>
      <stop offset="100%" stop-color="#0f172a"/>
    </linearGradient>
    <linearGradient id="goldGrad" x1="0%" y1="0%" x2="100%" y2="100%">
      <stop offset="0%" stop-color="#fef08a"/>
      <stop offset="50%" stop-color="#facc15"/>
      <stop offset="100%" stop-color="#b45309"/>
    </linearGradient>
    <filter id="glow" x="-20%" y="-20%" width="140%" height="140%">
      <feDropShadow dx="0" dy="8" stdDeviation="12" flood-color="#facc15" flood-opacity="0.5"/>
    </filter>
  </defs>
  <rect width="512" height="512" rx="128" fill="url(#bgGrad)"/>
  <circle cx="256" cy="256" r="180" fill="none" stroke="url(#goldGrad)" stroke-width="12" stroke-dasharray="8 8" opacity="0.4"/>
  <g filter="url(#glow)">
    <!-- Trophy Icon in Center -->
    <path d="M176 140 H336 V240 C336 284.18 300.18 320 256 320 C211.82 320 176 284.18 176 240 Z" fill="url(#goldGrad)"/>
    <path d="M176 160 H136 C118.33 160 104 174.33 104 192 C104 227.33 132.67 256 168 256 H176 Z" fill="none" stroke="url(#goldGrad)" stroke-width="20" stroke-linecap="round"/>
    <path d="M336 160 H376 C393.67 160 408 174.33 408 192 C408 227.33 379.33 256 344 256 H336 Z" fill="none" stroke="url(#goldGrad)" stroke-width="20" stroke-linecap="round"/>
    <rect x="236" y="320" width="40" height="60" fill="url(#goldGrad)"/>
    <rect x="180" y="380" width="152" height="32" rx="16" fill="url(#goldGrad)"/>
    <!-- Math symbols floating -->
    <text x="256" y="248" font-family="sans-serif" font-weight="900" font-size="72" fill="#78350f" text-anchor="middle">MC</text>
  </g>
</svg>
